# xmcd
# Track frame offsets:
# 150
# 17850
# 28615
# 44725
# 65482
# 87707
# 104650
# 124232
# 137452
# 161825
# 176102
# 203025
# 225845
# 237397
#
# Disc length: 3445 seconds
# Revision: 0
# Processed by: cddbd v1.4PL0 Copyright (c) Steve Scherf et al.
# Submitted via: VisiTrax 2.9.5.180 - For more info visit www.synapsa.com
#
DISCID=c80d730e
DTITLE=Craig Chambers - Where The Pavement Ends
DYEAR=1900
DGENRE=
TTITLE0=Charlie Siringo
TTITLE1=The Fence Rider
TTITLE2=Young Lover's Waltz
TTITLE3=The Girls From Texas
TTITLE4=Mira Las Palomas
TTITLE5=The Last Of The Singin' Cowboys
TTITLE6=Sometimes This Old cowboy Gets The Blues
TTITLE7=Seven Days from Musquiz
TTITLE8=Between the Lines
TTITLE9=Cowboys Dream #19
TTITLE10=The Gringo Pistolero
TTITLE11=The Town Of Tascosa
TTITLE12=Quarter Horse Type Of Gal
TTITLE13=Say Goodbye To The Cowboy
EXTD=
EXTT0=
EXTT1=
EXTT2=
EXTT3=
EXTT4=
EXTT5=
EXTT6=
EXTT7=
EXTT8=
EXTT9=
EXTT10=
EXTT11=
EXTT12=
EXTT13=
PLAYORDER=
